# xmcd CD database file
# Copyright (C) 1993-1996 Ti Kan
#
# Track frame offsets:
#	182
#	19002
#	35735
#	70725
#	86305
#	120145
#	132187
#	150270
#	170890
#
# Disc length: 2439 seconds
#
# Revision: 1
# Processed by: cddbd v1.4b41PL1 Copyright (c) Steve Scherf et al.
# Submitted via: xmcd 2.0
#
DISCID=64098509
DTITLE=The Persuader Band/Turnin' Blue (featuring Rick Berthoud)
DYEAR=1900
DGENRE=
TTITLE0=You Belong To Me
TTITLE1=So Much
TTITLE2=Cold Cold Feeling
TTITLE3=Turnin' Blue (dedicated to Stevie Ray Vaughan)
TTITLE4=Lost Feeling
TTITLE5=Worried
TTITLE6=Whips and Chains
TTITLE7=Memories
TTITLE8=Why Not?
EXTD=
EXTT0=
EXTT1=
EXTT2=
EXTT3=
EXTT4=
EXTT5=
EXTT6=
EXTT7=
EXTT8=
PLAYORDER=
